P2
4 5
255

255
0
0
0

0
0
127
127

0
0
0
0

0
0
0
0

255
0
255
0

